<svg width="417" height="108" viewBox="0 0 417 108" fill="none" xmlns="http://www.w3.org/2000/svg">
<path d="M0.504028 106V0.880005H22.104V26.8L21.384 41.92H27.72L21.384 46.96C21.384 40.24 23.304 34.96 27.144 31.12C30.984 27.28 36.168 25.36 42.696 25.36C50.376 25.36 56.52 28.048 61.128 33.424C65.832 38.8 68.184 45.952 68.184 54.88V106H46.584V57.04C46.584 52.912 45.48 49.744 43.272 47.536C41.16 45.232 38.136 44.08 34.2 44.08C30.36 44.08 27.384 45.232 25.272 47.536C23.16 49.744 22.104 52.912 22.104 57.04V106H0.504028Z" fill="#80C2AF"/>
<path d="M111.04 107.44C103.072 107.44 96.7358 105.28 92.0318 100.96C87.4238 96.64 85.1198 90.784 85.1198 83.392C85.1198 75.424 87.8558 69.328 93.3278 65.104C98.8958 60.784 106.864 58.624 117.232 58.624H133.648V52.72C133.648 49.648 132.544 47.2 130.336 45.376C128.224 43.552 125.344 42.64 121.696 42.64C118.336 42.64 115.552 43.408 113.344 44.944C111.136 46.48 109.792 48.592 109.312 51.28H88.4318C89.2958 43.312 92.7518 37.024 98.7998 32.416C104.944 27.712 112.816 25.36 122.416 25.36C132.496 25.36 140.464 27.856 146.32 32.848C152.272 37.744 155.248 44.368 155.248 52.72V106H134.368V93.04H130.912L134.512 88C134.512 93.952 132.352 98.704 128.032 102.256C123.808 105.712 118.144 107.44 111.04 107.44ZM119.104 91.6C123.328 91.6 126.784 90.496 129.472 88.288C132.256 85.984 133.648 83.008 133.648 79.36V70.864H117.664C114.4 70.864 111.76 71.824 109.744 73.744C107.728 75.568 106.72 78.016 106.72 81.088C106.72 84.352 107.824 86.944 110.032 88.864C112.24 90.688 115.264 91.6 119.104 91.6Z" fill="#80C2AF"/>
<path d="M175.064 106V0.880005H196.664V56.752H207.32L223.88 26.8H247.928L225.896 65.536L248.36 106H223.88L207.176 74.896H196.664V106H175.064Z" fill="#80C2AF"/>
<path d="M262.127 106V0.880005H283.727V56.752H294.383L310.943 26.8H334.991L312.959 65.536L335.423 106H310.943L294.239 74.896H283.727V106H262.127Z" fill="#80C2AF"/>
<path d="M372.231 107.44C364.263 107.44 357.927 105.28 353.223 100.96C348.615 96.64 346.311 90.784 346.311 83.392C346.311 75.424 349.047 69.328 354.519 65.104C360.087 60.784 368.055 58.624 378.423 58.624H394.839V52.72C394.839 49.648 393.735 47.2 391.527 45.376C389.415 43.552 386.535 42.64 382.887 42.64C379.527 42.64 376.743 43.408 374.535 44.944C372.327 46.48 370.983 48.592 370.503 51.28H349.623C350.487 43.312 353.943 37.024 359.991 32.416C366.135 27.712 374.007 25.36 383.607 25.36C393.687 25.36 401.655 27.856 407.511 32.848C413.463 37.744 416.439 44.368 416.439 52.72V106H395.559V93.04H392.103L395.703 88C395.703 93.952 393.543 98.704 389.223 102.256C384.999 105.712 379.335 107.44 372.231 107.44ZM380.295 91.6C384.519 91.6 387.975 90.496 390.663 88.288C393.447 85.984 394.839 83.008 394.839 79.36V70.864H378.855C375.591 70.864 372.951 71.824 370.935 73.744C368.919 75.568 367.911 78.016 367.911 81.088C367.911 84.352 369.015 86.944 371.223 88.864C373.431 90.688 376.455 91.6 380.295 91.6Z" fill="#80C2AF"/>
</svg>
